<svg xmlns="http://www.w3.org/2000/svg" xmlns:xlink="http://www.w3.org/1999/xlink" width="500" zoomAndPan="magnify" viewBox="0 0 375 225" height="300" preserveAspectRatio="xMidYMid meet" version="1.0"><path fill="#f4fbf8" d="M 235.179688 17.375 C 221.949219 25.152344 219.308594 26.804688 219.484375 27.191406 C 219.554688 27.367188 221.175781 28.214844 223.074219 29.09375 C 226.136719 30.464844 226.558594 30.78125 226.382812 31.414062 C 226.207031 32.15625 220.824219 44.152344 213.398438 60.199219 C 211.359375 64.632812 209.246094 68.75 208.71875 69.3125 C 205.902344 72.304688 200.484375 72.375 198.195312 69.453125 C 197.808594 68.960938 196.085938 65.511719 194.363281 61.78125 L 191.230469 55.027344 L 192.074219 54.464844 C 194.257812 53.019531 196.578125 50.875 197.808594 49.152344 C 204.425781 39.683594 198.019531 26.980469 186.65625 26.980469 C 185.246094 26.980469 183.3125 27.226562 182.363281 27.507812 C 178.351562 28.707031 174.761719 32.402344 173.425781 36.765625 C 172.085938 41.058594 172.617188 44.117188 175.746094 50.769531 C 176.839844 53.054688 181.589844 63.261719 186.339844 73.429688 C 198.054688 98.554688 197.808594 98.0625 199.464844 99.75 C 200.273438 100.5625 201.820312 101.652344 202.914062 102.179688 C 204.636719 103.023438 205.339844 103.164062 207.910156 103.164062 C 210.441406 103.164062 211.183594 103.023438 212.660156 102.214844 C 215.96875 100.492188 217.621094 98.167969 220.507812 91.375 C 221.28125 89.546875 223.671875 83.988281 225.855469 79.0625 C 228.035156 74.132812 232.894531 62.980469 236.65625 54.253906 C 240.421875 45.5625 243.554688 38.382812 243.589844 38.3125 C 243.660156 38.242188 245.171875 38.945312 246.96875 39.824219 C 250.417969 41.550781 251.402344 41.65625 251.050781 40.175781 C 250.945312 39.71875 250.03125 33.175781 249.078125 25.679688 C 248.09375 18.183594 247.214844 11.816406 247.144531 11.570312 C 247.074219 11.359375 246.6875 11.148438 246.335938 11.148438 C 245.984375 11.148438 240.949219 13.925781 235.179688 17.375 Z M 235.179688 17.375 " fill-opacity="1" fill-rule="nonzero"/><path fill="#f4fbf8" d="M 145.238281 26.980469 C 141.613281 27.617188 138.199219 30.253906 136.617188 33.773438 C 135.773438 35.601562 135.632812 36.414062 135.597656 38.945312 C 135.597656 42.675781 135.914062 43.660156 140.417969 53.375 C 146.539062 66.570312 150.445312 74.980469 153.929688 82.472656 C 161.988281 99.855469 162.128906 100.101562 166.105469 102.179688 C 167.722656 103.023438 168.359375 103.164062 171.136719 103.164062 C 173.8125 103.164062 174.550781 103.023438 176.027344 102.285156 C 178.105469 101.230469 180.8125 98.625 181.625 96.902344 C 182.222656 95.703125 182.1875 95.5625 181.519531 93.804688 C 180.636719 91.621094 171.804688 72.269531 164.453125 56.539062 C 161.636719 50.453125 158.996094 44.503906 158.574219 43.34375 C 156.921875 38.382812 157.484375 32.613281 160.054688 28.953125 C 161.355469 27.121094 161.355469 27.050781 160.652344 26.839844 C 159.523438 26.558594 147.140625 26.664062 145.238281 26.980469 Z M 145.238281 26.980469 " fill-opacity="1" fill-rule="nonzero"/><path fill="#f4fbf8" d="M 260.164062 123.398438 C 258.863281 123.925781 257.488281 125.71875 257.277344 127.164062 C 256.785156 130.929688 260.304688 133.601562 263.683594 131.984375 C 265.40625 131.175781 266.320312 129.625 266.320312 127.585938 C 266.320312 124.382812 263.050781 122.167969 260.164062 123.398438 Z M 260.164062 123.398438 " fill-opacity="1" fill-rule="nonzero"/><path fill="#f4fbf8" d="M 185.8125 125.296875 C 185.351562 125.542969 183.910156 127.304688 182.574219 129.203125 C 180.671875 131.878906 180.214844 132.757812 180.496094 133.144531 C 181.023438 133.742188 186.09375 133.777344 186.867188 133.144531 C 187.921875 132.335938 191.019531 128.21875 191.019531 127.65625 C 191.019531 126.636719 189.964844 125.542969 188.625 125.15625 C 187.007812 124.734375 186.796875 124.734375 185.8125 125.296875 Z M 185.8125 125.296875 " fill-opacity="1" fill-rule="nonzero"/><path fill="#f4fbf8" d="M 208.4375 126.390625 C 207.59375 127.199219 207.558594 127.375 207.558594 132.546875 L 207.558594 137.824219 L 205.234375 137.824219 C 203.160156 137.824219 202.84375 137.929688 201.890625 138.84375 C 200.730469 140.007812 200.554688 141.484375 201.398438 143.066406 C 202.03125 144.335938 202.527344 144.511719 205.269531 144.511719 L 207.523438 144.511719 L 207.628906 153.90625 C 207.734375 162.984375 207.769531 163.40625 208.578125 165.203125 C 210.757812 170.058594 216.601562 172.519531 222.757812 171.21875 C 226.3125 170.445312 227.964844 167.59375 226.066406 165.378906 L 225.222656 164.425781 L 222.40625 164.816406 C 218.21875 165.449219 216.144531 164.636719 214.910156 162 C 214.347656 160.699219 214.242188 159.605469 214.242188 152.5 L 214.242188 144.511719 L 218.640625 144.511719 C 222.863281 144.511719 223.109375 144.476562 223.921875 143.632812 C 225.1875 142.398438 225.152344 140.21875 223.8125 138.878906 C 222.828125 137.929688 222.757812 137.894531 219.804688 138.070312 C 218.148438 138.175781 216.214844 138.175781 215.511719 138.035156 L 214.242188 137.789062 L 214.242188 132.511719 C 214.242188 127.375 214.207031 127.199219 213.363281 126.390625 C 212.730469 125.71875 212.132812 125.507812 210.898438 125.507812 C 209.667969 125.507812 209.070312 125.71875 208.4375 126.390625 Z M 208.4375 126.390625 " fill-opacity="1" fill-rule="nonzero"/><path fill="#f4fbf8" d="M 24.964844 138.035156 C 19.511719 139.515625 15.148438 143.597656 13.351562 148.980469 C 12.648438 151.054688 12.613281 151.902344 12.613281 166.855469 L 12.613281 182.585938 L 13.632812 183.605469 C 15.007812 184.976562 17.152344 185.046875 18.421875 183.746094 C 19.300781 182.902344 19.300781 182.832031 19.335938 175.757812 C 19.371094 171.816406 19.371094 168.402344 19.335938 168.15625 C 19.230469 167.488281 19.933594 167.664062 21.199219 168.613281 C 29.292969 174.773438 41.960938 170.726562 45.585938 160.839844 C 49.773438 149.226562 41.539062 137.367188 29.328125 137.507812 C 27.992188 137.507812 26.019531 137.753906 24.964844 138.035156 Z M 33.9375 145.144531 C 34.746094 145.53125 36.121094 146.691406 37.035156 147.714844 C 39.074219 150 39.851562 152.429688 39.636719 155.804688 C 39.003906 164.355469 29.046875 168.261719 22.679688 162.421875 C 20.109375 160.0625 19.160156 157.707031 19.371094 154.117188 C 19.652344 149.71875 22.148438 146.058594 25.773438 144.722656 C 27.816406 143.949219 32.074219 144.160156 33.9375 145.144531 Z M 33.9375 145.144531 " fill-opacity="1" fill-rule="nonzero"/><path fill="#f4fbf8" d="M 126.378906 137.789062 C 125.074219 138.140625 122.367188 139.65625 121.699219 140.429688 C 121.097656 141.203125 120.640625 141.132812 120.640625 140.324219 C 120.640625 139.304688 118.671875 137.824219 117.300781 137.824219 C 116.558594 137.824219 115.714844 138.140625 115.046875 138.738281 L 113.957031 139.65625 L 113.957031 154.046875 C 113.957031 169.425781 114.027344 169.988281 115.679688 170.902344 C 116.558594 171.359375 118.390625 171.359375 119.269531 170.902344 C 120.851562 170.058594 120.992188 169.039062 120.992188 159.183594 C 120.992188 149.226562 121.136719 148.207031 122.859375 146.339844 C 124.757812 144.300781 128.277344 143.5625 130.601562 144.722656 C 132.21875 145.53125 132.921875 146.234375 133.800781 147.855469 C 134.507812 149.191406 134.542969 149.894531 134.71875 159.394531 L 134.894531 169.566406 L 135.878906 170.410156 C 137.320312 171.640625 139.363281 171.570312 140.734375 170.234375 L 141.753906 169.214844 L 141.753906 159.921875 C 141.753906 154.820312 141.929688 150.105469 142.105469 149.402344 C 142.988281 146.234375 145.660156 144.160156 148.828125 144.160156 C 150.902344 144.160156 152.207031 144.617188 153.472656 145.847656 C 155.621094 147.855469 155.65625 147.996094 155.832031 159.21875 L 156.007812 169.566406 L 156.992188 170.410156 C 158.046875 171.324219 159.914062 171.535156 161.144531 170.902344 C 162.726562 170.058594 162.867188 169.039062 162.867188 159.183594 C 162.867188 154.082031 162.691406 149.015625 162.515625 147.996094 C 161.742188 143.84375 159.03125 140.21875 155.515625 138.597656 C 153.789062 137.789062 153.050781 137.683594 149.847656 137.683594 C 145.449219 137.648438 143.585938 138.316406 141.015625 140.886719 L 139.363281 142.46875 L 138.058594 141.027344 C 136.125 138.914062 133.589844 137.789062 130.25 137.613281 C 128.734375 137.542969 127.011719 137.613281 126.378906 137.789062 Z M 126.378906 137.789062 " fill-opacity="1" fill-rule="nonzero"/><path fill="#f4fbf8" d="M 179.863281 138 C 176.765625 138.667969 174.410156 140.078125 172.15625 142.503906 C 168.179688 146.761719 166.738281 152.042969 167.828125 158.09375 C 168.78125 163.40625 172.15625 167.734375 177.296875 170.164062 C 179.582031 171.253906 180.320312 171.429688 183.242188 171.535156 C 187.148438 171.710938 189.644531 171.253906 192.707031 169.777344 C 197 167.664062 198.445312 164.886719 196.332031 162.773438 C 195.03125 161.507812 193.691406 161.4375 191.933594 162.632812 C 188.800781 164.746094 187.816406 165.097656 184.683594 165.097656 C 181.519531 165.097656 180.003906 164.566406 177.789062 162.703125 C 176.804688 161.859375 175.535156 159.710938 175.007812 157.953125 L 174.796875 157.179688 L 186.339844 157.179688 C 195.804688 157.179688 198.054688 157.074219 198.621094 156.6875 C 199.183594 156.265625 199.289062 155.734375 199.289062 153.0625 C 199.289062 150.984375 199.042969 149.296875 198.621094 147.925781 C 197.28125 143.84375 193.65625 140.007812 189.753906 138.527344 C 187.113281 137.542969 182.785156 137.296875 179.863281 138 Z M 187.042969 144.335938 C 189.152344 145.214844 190.632812 146.550781 191.546875 148.382812 C 193.234375 151.722656 193.65625 151.546875 183.804688 151.546875 C 173.953125 151.546875 174.445312 151.757812 176.097656 148.453125 C 177.578125 145.460938 180.285156 143.84375 183.910156 143.808594 C 184.929688 143.808594 186.339844 144.054688 187.042969 144.335938 Z M 187.042969 144.335938 " fill-opacity="1" fill-rule="nonzero"/><path fill="#f4fbf8" d="M 244.855469 137.964844 C 242.921875 138.457031 240.878906 139.691406 239.964844 140.851562 L 239.296875 141.695312 L 239.085938 140.464844 C 238.769531 138.808594 237.433594 137.824219 235.53125 137.824219 C 234.265625 137.824219 233.84375 138 233.105469 138.914062 L 232.1875 140.007812 L 232.1875 154.046875 C 232.1875 169.003906 232.292969 170.023438 233.878906 170.867188 C 234.792969 171.359375 236.585938 171.359375 237.503906 170.902344 C 239.050781 170.058594 239.226562 169.003906 239.226562 159.746094 C 239.226562 154.75 239.402344 150.457031 239.613281 149.683594 C 239.789062 148.980469 240.527344 147.785156 241.234375 147.113281 C 243.167969 145.144531 244.890625 144.511719 248.304688 144.511719 C 251.121094 144.511719 251.296875 144.476562 252.316406 143.457031 C 253.265625 142.503906 253.371094 142.1875 253.195312 140.957031 C 253.089844 140.183594 252.738281 139.234375 252.386719 138.84375 C 251.191406 137.507812 247.882812 137.121094 244.855469 137.964844 Z M 244.855469 137.964844 " fill-opacity="1" fill-rule="nonzero"/><path fill="#f4fbf8" d="M 282.894531 138.035156 C 278.742188 139.164062 274.589844 142.398438 272.585938 146.128906 C 270.648438 149.71875 270.015625 155.066406 271.074219 159.113281 C 272.972656 166.328125 279.800781 171.570312 287.328125 171.605469 C 291.550781 171.605469 295.457031 170.304688 298.203125 167.945312 C 300.804688 165.730469 300.980469 163.546875 298.660156 162.140625 C 297.359375 161.332031 296.40625 161.542969 294.121094 163.054688 C 291.234375 164.992188 288.03125 165.589844 285.113281 164.746094 C 280.539062 163.40625 277.96875 160.238281 277.652344 155.558594 C 277.441406 152.078125 278.179688 149.648438 280.222656 147.394531 C 283.878906 143.316406 289.195312 142.890625 294.261719 146.269531 C 296.511719 147.785156 296.902344 147.890625 298.097656 147.289062 C 299.363281 146.65625 300.101562 145.460938 300.101562 144.089844 C 300.101562 143.03125 299.855469 142.539062 298.800781 141.519531 C 295.28125 138.105469 288.316406 136.558594 282.894531 138.035156 Z M 282.894531 138.035156 " fill-opacity="1" fill-rule="nonzero"/><path fill="#f4fbf8" d="M 316.394531 137.824219 C 312.417969 138.632812 307.773438 142.117188 305.804688 145.847656 C 303.023438 151.089844 302.847656 157.777344 305.417969 162.84375 C 306.964844 165.941406 309.605469 168.578125 312.628906 170.058594 C 314.882812 171.183594 315.621094 171.359375 318.472656 171.5 C 322.554688 171.710938 325.332031 170.902344 328.359375 168.578125 L 330.363281 167.03125 L 330.363281 168.050781 C 330.363281 168.648438 330.75 169.53125 331.28125 170.164062 C 332.511719 171.640625 334.726562 171.710938 336.03125 170.339844 C 336.875 169.460938 336.875 169.355469 336.980469 161.296875 C 337.121094 152.21875 336.875 150.105469 335.21875 146.691406 C 333.953125 143.984375 330.855469 140.710938 328.359375 139.445312 C 324.910156 137.71875 320.265625 137.085938 316.394531 137.824219 Z M 324.207031 145.003906 C 331.949219 148.453125 332.195312 160.167969 324.59375 164.144531 C 323.117188 164.921875 322.339844 165.097656 320.160156 165.097656 C 317.871094 165.097656 317.273438 164.957031 315.65625 164.074219 C 312.101562 162.105469 310.554688 159.253906 310.519531 154.714844 C 310.484375 152.324219 310.660156 151.371094 311.292969 149.964844 C 312.734375 146.867188 315.023438 144.933594 318.046875 144.300781 C 320.40625 143.808594 321.882812 143.984375 324.207031 145.003906 Z M 324.207031 145.003906 " fill-opacity="1" fill-rule="nonzero"/><path fill="#f4fbf8" d="M 348.804688 137.789062 C 345.53125 138.597656 343.171875 140.5 341.871094 143.421875 C 340.816406 145.8125 341.097656 149.613281 342.503906 151.617188 C 344.125 153.90625 346.199219 155.277344 349.613281 156.335938 C 354.785156 157.917969 355.699219 158.269531 356.757812 159.183594 C 357.636719 159.886719 357.8125 160.308594 357.8125 161.578125 C 357.8125 162.84375 357.636719 163.265625 356.757812 164.003906 C 354.257812 166.082031 350 165.589844 346.550781 162.773438 C 345.355469 161.789062 343.804688 161.472656 342.503906 161.964844 C 341.835938 162.246094 340.921875 163.898438 340.921875 164.921875 C 340.921875 165.835938 343.382812 168.507812 345.25 169.636719 C 349.402344 172.0625 354.996094 172.273438 359.113281 170.164062 C 363.160156 168.121094 364.707031 165.238281 364.425781 160.488281 C 364.179688 156.546875 362.421875 154.1875 358.515625 152.464844 C 357.847656 152.183594 355.664062 151.441406 353.730469 150.84375 C 349.4375 149.578125 348.3125 148.804688 348.3125 147.148438 C 348.3125 145.496094 348.59375 144.898438 349.753906 144.335938 C 351.96875 143.171875 355.910156 143.949219 358.761719 146.128906 C 360.203125 147.21875 361.121094 147.183594 362.28125 146.058594 C 363.054688 145.285156 363.160156 144.933594 362.984375 143.597656 C 362.703125 141.0625 360.273438 138.988281 356.507812 138 C 354.398438 137.4375 350.667969 137.367188 348.804688 137.789062 Z M 348.804688 137.789062 " fill-opacity="1" fill-rule="nonzero"/><path fill="#f4fbf8" d="M 50.6875 138.527344 C 49 140.113281 48.894531 139.65625 54.277344 155.277344 C 58.957031 168.859375 59.308594 169.707031 60.398438 170.550781 C 61.597656 171.5 64.269531 171.5 65.503906 170.550781 C 66.453125 169.777344 66.558594 169.53125 70.535156 157.390625 C 71.976562 152.957031 73.207031 149.261719 73.277344 149.191406 C 73.347656 149.121094 74.96875 153.660156 76.832031 159.289062 C 79.753906 168.015625 80.421875 169.636719 81.300781 170.375 C 82.992188 171.816406 85.839844 171.429688 87.039062 169.601562 C 87.355469 169.144531 88.796875 165.414062 90.273438 161.296875 C 91.71875 157.214844 93.933594 151.160156 95.164062 147.855469 C 96.398438 144.582031 97.417969 141.378906 97.417969 140.710938 C 97.417969 138.351562 94.601562 137.050781 92 138.210938 C 90.625 138.84375 90.273438 139.761719 85.171875 156.546875 C 84.503906 158.832031 83.835938 160.699219 83.695312 160.699219 C 83.589844 160.699219 83.273438 159.957031 83.0625 159.007812 C 82.816406 158.09375 81.335938 153.449219 79.789062 148.664062 C 76.585938 138.703125 76.09375 137.824219 73.664062 137.824219 C 71.90625 137.824219 70.535156 138.738281 69.832031 140.394531 C 69.582031 141.027344 68.070312 145.707031 66.488281 150.84375 C 63.003906 162.070312 63.285156 161.191406 63.144531 161.015625 C 63.074219 160.945312 61.632812 156.371094 59.941406 150.84375 C 56.632812 140.042969 56.316406 139.199219 55.121094 138.386719 C 53.996094 137.578125 51.636719 137.648438 50.6875 138.527344 Z M 50.6875 138.527344 " fill-opacity="1" fill-rule="nonzero"/><path fill="#f4fbf8" d="M 259.320312 138.738281 L 258.230469 139.65625 L 258.230469 169.390625 L 259.109375 170.339844 C 260.410156 171.746094 263.191406 171.535156 264.457031 169.882812 C 264.773438 169.460938 264.878906 165.625 264.914062 154.644531 C 264.914062 146.585938 264.808594 139.726562 264.703125 139.410156 C 264.386719 138.632812 262.734375 137.824219 261.429688 137.824219 C 260.832031 137.824219 259.953125 138.210938 259.320312 138.738281 Z M 259.320312 138.738281 " fill-opacity="1" fill-rule="nonzero"/><path fill="#f4fbf8" d="M 33.9375 188.742188 C 33.65625 189.304688 32.566406 191.945312 31.441406 194.652344 C 30.347656 197.363281 29.363281 199.792969 29.257812 200.039062 C 29.117188 200.390625 29.398438 200.496094 30.382812 200.390625 C 31.617188 200.285156 31.792969 200.144531 32.285156 198.769531 L 32.8125 197.292969 L 37.597656 197.292969 L 38.371094 198.875 C 39.074219 200.285156 39.285156 200.460938 40.34375 200.460938 C 41.75 200.460938 41.820312 200.8125 38.96875 194.019531 C 37.808594 191.347656 36.894531 189.023438 36.894531 188.847656 C 36.894531 188.425781 35.699219 187.792969 34.992188 187.792969 C 34.675781 187.792969 34.21875 188.214844 33.9375 188.742188 Z M 36.15625 193.035156 C 36.542969 194.089844 36.859375 195.007812 36.789062 195.042969 C 36.472656 195.253906 33.726562 195.394531 33.726562 195.183594 C 33.726562 194.761719 35.203125 190.925781 35.34375 191.03125 C 35.378906 191.101562 35.769531 191.980469 36.15625 193.035156 Z M 36.15625 193.035156 " fill-opacity="1" fill-rule="nonzero"/><path fill="#f4fbf8" d="M 73.066406 188.496094 C 71.378906 189.410156 70.464844 190.609375 69.972656 192.683594 C 68.984375 196.765625 71.765625 200.460938 75.8125 200.460938 C 79.261719 200.460938 81.933594 197.714844 81.933594 194.160156 C 81.933594 191.769531 81.054688 190.078125 79.15625 188.847656 C 77.289062 187.582031 75.039062 187.476562 73.066406 188.496094 Z M 77.992188 190.820312 C 79.929688 192.085938 79.929688 195.710938 78.0625 197.398438 C 77.078125 198.277344 76.691406 198.382812 75.53125 198.242188 C 74.757812 198.136719 73.839844 197.785156 73.488281 197.46875 C 72.574219 196.625 71.976562 194.652344 72.222656 193.28125 C 72.433594 192.191406 73.804688 190.539062 74.898438 190.148438 C 75.601562 189.867188 77.007812 190.183594 77.992188 190.820312 Z M 77.992188 190.820312 " fill-opacity="1" fill-rule="nonzero"/><path fill="#f4fbf8" d="M 107.058594 188.074219 C 106.742188 188.285156 101.992188 199.6875 101.992188 200.25 C 101.992188 200.390625 102.484375 200.460938 103.082031 200.390625 C 104.246094 200.285156 104.5625 199.96875 105.160156 198.242188 C 105.476562 197.328125 105.582031 197.292969 107.9375 197.292969 L 110.367188 197.292969 L 111 198.910156 C 111.5625 200.425781 111.667969 200.496094 112.867188 200.390625 C 113.570312 200.320312 114.097656 200.109375 114.0625 199.933594 C 113.886719 198.949219 109.207031 188.285156 108.890625 188.074219 C 108.679688 187.933594 108.253906 187.792969 107.972656 187.792969 C 107.691406 187.792969 107.269531 187.933594 107.058594 188.074219 Z M 108.890625 193.210938 L 109.664062 195.113281 L 108.890625 195.324219 C 107.621094 195.675781 106.566406 195.570312 106.566406 195.078125 C 106.566406 194.476562 107.726562 191.3125 107.9375 191.3125 C 108.078125 191.3125 108.503906 192.15625 108.890625 193.210938 Z M 108.890625 193.210938 " fill-opacity="1" fill-rule="nonzero"/><path fill="#f4fbf8" d="M 151.996094 188.425781 C 151.433594 189.480469 147.386719 199.757812 147.386719 200.109375 C 147.386719 200.320312 147.878906 200.460938 148.441406 200.460938 C 149.390625 200.460938 149.601562 200.25 150.199219 198.875 L 150.867188 197.292969 L 155.726562 197.292969 L 156.324219 198.875 C 156.886719 200.320312 157.0625 200.460938 158.152344 200.460938 C 158.820312 200.460938 159.347656 200.320312 159.347656 200.179688 C 159.347656 200.003906 158.960938 198.949219 158.503906 197.785156 C 154.667969 188.355469 154.351562 187.792969 152.945312 187.792969 C 152.628906 187.792969 152.171875 188.074219 151.996094 188.425781 Z M 154.035156 192.753906 C 154.28125 193.5625 154.5625 194.40625 154.632812 194.652344 C 154.773438 194.972656 154.351562 195.148438 153.367188 195.253906 C 152.558594 195.324219 151.855469 195.289062 151.75 195.148438 C 151.574219 194.832031 153.050781 191.3125 153.367188 191.3125 C 153.507812 191.3125 153.789062 191.945312 154.035156 192.753906 Z M 154.035156 192.753906 " fill-opacity="1" fill-rule="nonzero"/><path fill="#f4fbf8" d="M 195.242188 188.566406 C 192.496094 189.972656 191.230469 192.824219 192.039062 195.886719 C 192.8125 198.769531 195.066406 200.460938 198.160156 200.460938 C 202.207031 200.460938 204.917969 196.800781 203.96875 192.648438 C 203.546875 190.644531 202.417969 189.234375 200.730469 188.460938 C 198.796875 187.582031 197.140625 187.617188 195.242188 188.566406 Z M 200.625 191.347656 C 202.347656 193.210938 201.890625 196.730469 199.746094 197.855469 C 195.839844 199.863281 192.285156 194.371094 195.453125 191.207031 C 197 189.65625 199.042969 189.691406 200.625 191.347656 Z M 200.625 191.347656 " fill-opacity="1" fill-rule="nonzero"/><path fill="#f4fbf8" d="M 247.953125 188.179688 C 246.933594 188.566406 245.914062 190.359375 245.914062 191.769531 C 245.914062 193.175781 247.285156 194.371094 249.785156 195.253906 C 252.140625 196.097656 252.738281 196.800781 251.894531 197.820312 C 251.332031 198.488281 249.535156 198.488281 248.234375 197.820312 C 246.898438 197.117188 246.371094 197.152344 245.878906 198.066406 C 245.527344 198.699219 245.597656 198.910156 246.300781 199.441406 C 247.390625 200.285156 249.042969 200.601562 251.121094 200.355469 C 254.21875 200.003906 255.800781 196.800781 253.9375 194.691406 C 253.476562 194.195312 252.105469 193.421875 250.839844 193 C 249.042969 192.367188 248.515625 192.015625 248.445312 191.417969 C 248.375 190.820312 248.585938 190.503906 249.253906 190.183594 C 250.03125 189.832031 250.453125 189.902344 251.894531 190.503906 C 253.40625 191.171875 253.617188 191.171875 253.757812 190.644531 C 253.863281 190.324219 254.042969 189.832031 254.148438 189.515625 C 254.675781 188.285156 250.242188 187.371094 247.953125 188.179688 Z M 247.953125 188.179688 " fill-opacity="1" fill-rule="nonzero"/><path fill="#f4fbf8" d="M 298.132812 188.179688 C 297.78125 188.742188 293.417969 199.792969 293.417969 200.109375 C 293.417969 200.320312 293.910156 200.460938 294.472656 200.460938 C 295.421875 200.460938 295.632812 200.25 296.230469 198.875 L 296.902344 197.292969 L 301.6875 197.292969 L 302.320312 198.875 C 302.917969 200.320312 303.09375 200.460938 304.183594 200.460938 C 304.851562 200.460938 305.382812 200.320312 305.382812 200.144531 C 305.382812 199.96875 304.746094 198.242188 303.9375 196.34375 C 303.164062 194.441406 302.109375 191.839844 301.617188 190.539062 C 300.769531 188.355469 300.664062 188.214844 299.503906 188.074219 C 298.835938 188.003906 298.238281 188.039062 298.132812 188.179688 Z M 299.75 191.839844 C 299.75 192.15625 300.066406 193 300.453125 193.773438 L 301.160156 195.148438 L 299.925781 195.394531 C 297.78125 195.78125 297.535156 195.464844 298.34375 193.421875 C 298.730469 192.4375 299.046875 191.558594 299.046875 191.488281 C 299.046875 191.382812 299.222656 191.3125 299.398438 191.3125 C 299.609375 191.3125 299.75 191.558594 299.75 191.839844 Z M 299.75 191.839844 " fill-opacity="1" fill-rule="nonzero"/><path fill="#f4fbf8" d="M 326.667969 188.460938 C 325.894531 188.882812 324.875 189.761719 324.382812 190.503906 C 323.644531 191.558594 323.503906 192.191406 323.503906 194.300781 C 323.503906 196.519531 323.609375 196.976562 324.523438 198.136719 C 325.683594 199.6875 327.304688 200.460938 329.308594 200.460938 C 335.503906 200.460938 337.859375 192.507812 332.757812 188.742188 C 331.351562 187.6875 328.429688 187.582031 326.667969 188.460938 Z M 331.84375 191.242188 C 333.707031 192.964844 333.425781 196.378906 331.28125 197.679688 C 329.941406 198.488281 328.851562 198.523438 327.550781 197.75 C 326.28125 197.011719 325.789062 195.921875 325.789062 193.949219 C 325.789062 190.433594 329.308594 188.847656 331.84375 191.242188 Z M 331.84375 191.242188 " fill-opacity="1" fill-rule="nonzero"/><path fill="#f4fbf8" d="M 341.449219 188.109375 C 340.289062 188.601562 339.476562 189.761719 339.265625 191.277344 C 339.089844 192.507812 339.195312 192.824219 340.113281 193.703125 C 340.710938 194.300781 341.941406 194.972656 343.101562 195.324219 C 345.214844 195.921875 345.953125 196.835938 345.144531 197.820312 C 344.582031 198.523438 343.242188 198.488281 341.167969 197.75 C 339.691406 197.222656 339.441406 197.222656 339.160156 197.644531 C 338.949219 197.925781 338.808594 198.382812 338.808594 198.628906 C 338.808594 199.371094 341.625 200.460938 343.628906 200.460938 C 345.179688 200.460938 345.671875 200.285156 346.621094 199.441406 C 347.605469 198.558594 347.78125 198.171875 347.78125 196.765625 C 347.78125 194.796875 347.148438 194.160156 344.054688 193.035156 C 341.765625 192.191406 341.0625 191.207031 342.1875 190.359375 C 343.03125 189.726562 343.699219 189.796875 345.25 190.574219 C 346.515625 191.207031 346.585938 191.207031 346.902344 190.609375 C 347.535156 189.445312 347.289062 188.8125 346.023438 188.285156 C 344.722656 187.757812 342.574219 187.652344 341.449219 188.109375 Z M 341.449219 188.109375 " fill-opacity="1" fill-rule="nonzero"/><path fill="#f4fbf8" d="M 44.214844 192.613281 C 44.25 195.113281 44.496094 197.539062 44.707031 198.066406 C 45.585938 200.320312 49.527344 201.234375 51.953125 199.757812 C 53.714844 198.664062 54.136719 197.257812 54.136719 192.367188 L 54.136719 188.144531 L 51.671875 188.144531 L 51.671875 192.507812 C 51.671875 196.835938 51.671875 196.90625 50.757812 197.609375 C 49.597656 198.523438 48.472656 198.558594 47.414062 197.679688 C 46.605469 197.046875 46.570312 196.730469 46.464844 192.578125 L 46.324219 188.144531 L 44.109375 188.144531 Z M 44.214844 192.613281 " fill-opacity="1" fill-rule="nonzero"/><path fill="#f4fbf8" d="M 58.148438 188.917969 C 58.253906 189.375 58.359375 189.832031 58.359375 189.972656 C 58.359375 190.148438 58.816406 190.253906 59.378906 190.253906 C 61.527344 190.253906 61.527344 190.21875 61.527344 195.570312 L 61.527344 200.460938 L 63.988281 200.460938 L 63.988281 190.253906 L 65.75 190.253906 C 67.472656 190.253906 67.507812 190.21875 67.507812 189.199219 L 67.507812 188.144531 L 57.9375 188.144531 Z M 58.148438 188.917969 " fill-opacity="1" fill-rule="nonzero"/><path fill="#f4fbf8" d="M 86.507812 194.300781 L 86.507812 200.460938 L 89.007812 200.460938 L 88.972656 196.835938 C 88.9375 194.867188 88.9375 193.070312 88.972656 192.894531 C 88.972656 192.683594 89.535156 193.492188 90.203125 194.691406 C 91.542969 197.046875 92.28125 197.820312 92.808594 197.503906 C 92.984375 197.363281 93.6875 196.34375 94.320312 195.183594 C 94.953125 194.019531 95.589844 193.070312 95.730469 193.070312 C 95.90625 193.070312 96.011719 194.726562 96.011719 196.765625 L 96.011719 200.460938 L 98.121094 200.460938 L 98.121094 188.144531 L 96.925781 188.144531 C 95.765625 188.144531 95.625 188.285156 94.039062 191.171875 L 92.421875 194.195312 L 91.613281 192.824219 C 91.191406 192.085938 90.414062 190.75 89.886719 189.796875 C 89.042969 188.320312 88.796875 188.144531 87.742188 188.144531 L 86.507812 188.144531 Z M 86.507812 194.300781 " fill-opacity="1" fill-rule="nonzero"/><path fill="#f4fbf8" d="M 115.714844 189.164062 C 115.714844 190.148438 115.785156 190.21875 117.40625 190.324219 L 119.058594 190.433594 L 119.164062 195.429688 L 119.269531 200.460938 L 121.699219 200.460938 L 121.699219 195.535156 C 121.699219 190.078125 121.523438 190.46875 124.160156 190.183594 C 124.828125 190.113281 125.074219 189.832031 125.144531 189.09375 L 125.25 188.144531 L 115.714844 188.144531 Z M 115.714844 189.164062 " fill-opacity="1" fill-rule="nonzero"/><path fill="#f4fbf8" d="M 128.488281 194.195312 L 128.558594 200.285156 L 129.722656 200.390625 L 130.847656 200.496094 L 130.847656 188.144531 L 128.382812 188.144531 Z M 128.488281 194.195312 " fill-opacity="1" fill-rule="nonzero"/><path fill="#f4fbf8" d="M 135.492188 189.269531 L 135.597656 190.433594 L 138.34375 190.289062 C 141.542969 190.148438 141.613281 190.289062 139.714844 192.859375 C 136.160156 197.609375 135.070312 199.265625 135.140625 199.757812 C 135.246094 200.179688 136.089844 200.285156 139.925781 200.390625 L 144.570312 200.496094 L 144.570312 197.925781 L 141.578125 198.136719 C 139.925781 198.242188 138.589844 198.242188 138.589844 198.171875 C 138.589844 198.066406 139.925781 196.273438 141.542969 194.160156 C 143.199219 192.050781 144.535156 190.007812 144.570312 189.65625 C 144.746094 188.144531 144.746094 188.144531 139.960938 188.144531 L 135.386719 188.144531 Z M 135.492188 189.269531 " fill-opacity="1" fill-rule="nonzero"/><path fill="#f4fbf8" d="M 162.9375 194.195312 L 163.042969 200.285156 L 164.171875 200.390625 L 165.296875 200.496094 L 165.402344 196.589844 L 165.507812 192.648438 L 168.253906 196.554688 C 170.679688 200.039062 171.101562 200.460938 172.015625 200.460938 L 173.074219 200.460938 L 173.074219 188.144531 L 170.785156 188.144531 L 170.890625 192.050781 C 170.996094 194.511719 170.890625 195.886719 170.679688 195.746094 C 170.503906 195.640625 169.378906 194.160156 168.179688 192.472656 C 165.15625 188.109375 165.191406 188.144531 163.960938 188.144531 L 162.867188 188.144531 Z M 162.9375 194.195312 " fill-opacity="1" fill-rule="nonzero"/><path fill="#f4fbf8" d="M 177.648438 194.335938 L 177.648438 200.53125 L 180.917969 200.390625 C 184.71875 200.214844 186.023438 199.652344 187.394531 197.609375 C 188.625 195.746094 188.695312 192.71875 187.570312 190.890625 C 186.304688 188.847656 184.578125 188.144531 180.847656 188.144531 L 177.648438 188.144531 Z M 183.980469 190.714844 C 184.472656 190.960938 185.140625 191.734375 185.496094 192.472656 C 186.09375 193.632812 186.09375 193.949219 185.671875 195.253906 C 185.105469 197.046875 183.980469 197.890625 181.800781 198.207031 L 180.109375 198.417969 L 180.109375 190.253906 L 181.625 190.253906 C 182.433594 190.253906 183.488281 190.46875 183.980469 190.714844 Z M 183.980469 190.714844 " fill-opacity="1" fill-rule="nonzero"/><path fill="#f4fbf8" d="M 219.519531 194.265625 L 219.519531 200.460938 L 221.632812 200.460938 L 221.632812 198.136719 C 221.632812 195.851562 221.632812 195.851562 222.582031 195.957031 C 223.320312 196.027344 223.921875 196.589844 224.976562 198.171875 C 226.242188 200.039062 226.558594 200.285156 227.71875 200.390625 C 228.425781 200.460938 229.023438 200.390625 229.023438 200.214844 C 229.023438 200.074219 228.425781 198.984375 227.683594 197.820312 L 226.347656 195.710938 L 227.507812 194.617188 C 228.496094 193.667969 228.671875 193.28125 228.671875 191.910156 C 228.671875 190.714844 228.460938 190.042969 227.824219 189.304688 C 227.015625 188.355469 226.839844 188.320312 223.25 188.214844 L 219.519531 188.074219 Z M 225.644531 190.820312 C 226.3125 191.453125 226.382812 192.753906 225.785156 193.351562 C 225.539062 193.597656 224.519531 193.773438 223.496094 193.773438 L 221.632812 193.773438 L 221.632812 190.253906 L 223.355469 190.253906 C 224.484375 190.253906 225.292969 190.46875 225.644531 190.820312 Z M 225.644531 190.820312 " fill-opacity="1" fill-rule="nonzero"/><path fill="#f4fbf8" d="M 233.351562 194.195312 L 233.421875 200.285156 L 241.867188 200.285156 L 241.972656 199.125 L 242.078125 197.960938 L 235.882812 198.171875 L 235.777344 196.660156 L 235.671875 195.183594 L 238.488281 195.183594 C 241.269531 195.183594 241.339844 195.148438 241.339844 194.335938 C 241.339844 193.316406 240.210938 192.964844 237.574219 193.105469 L 235.882812 193.210938 L 235.777344 191.734375 L 235.671875 190.253906 L 242.042969 190.253906 L 242.042969 188.144531 L 233.28125 188.144531 Z M 233.351562 194.195312 " fill-opacity="1" fill-rule="nonzero"/><path fill="#f4fbf8" d="M 258.582031 192.71875 C 258.582031 197.855469 258.933594 199.019531 260.691406 199.933594 C 261.921875 200.566406 264.773438 200.601562 265.96875 200.003906 C 266.425781 199.757812 267.203125 199.019531 267.625 198.382812 C 268.363281 197.292969 268.433594 196.800781 268.433594 192.683594 L 268.433594 188.144531 L 265.96875 188.144531 L 265.96875 192.542969 C 265.96875 196.484375 265.898438 197.011719 265.265625 197.644531 C 264.386719 198.523438 262.769531 198.558594 261.78125 197.714844 C 261.113281 197.1875 261.042969 196.695312 260.972656 192.71875 L 260.867188 188.320312 L 259.742188 188.214844 L 258.582031 188.109375 Z M 258.582031 192.71875 " fill-opacity="1" fill-rule="nonzero"/><path fill="#f4fbf8" d="M 273.007812 194.300781 L 273.007812 200.460938 L 281.101562 200.460938 L 281.101562 198.136719 L 278.285156 198.207031 L 275.472656 198.3125 L 275.472656 188.144531 L 273.007812 188.144531 Z M 273.007812 194.300781 " fill-opacity="1" fill-rule="nonzero"/><path fill="#f4fbf8" d="M 282.648438 188.917969 C 282.753906 189.375 282.824219 189.902344 282.824219 190.078125 C 282.859375 190.289062 283.527344 190.398438 284.445312 190.324219 L 286.027344 190.183594 L 286.027344 200.460938 L 288.457031 200.460938 L 288.5625 195.429688 L 288.667969 190.433594 L 290.355469 190.324219 C 291.9375 190.21875 292.007812 190.148438 292.007812 189.164062 L 292.007812 188.144531 L 287.257812 188.144531 C 282.542969 188.144531 282.507812 188.144531 282.648438 188.917969 Z M 282.648438 188.917969 " fill-opacity="1" fill-rule="nonzero"/><path fill="#f4fbf8" d="M 309.425781 194.195312 L 309.460938 200.285156 L 312.628906 200.25 C 315.304688 200.25 316.042969 200.109375 317.097656 199.441406 C 320.476562 197.363281 320.933594 192.367188 317.976562 189.691406 C 316.570312 188.390625 315.726562 188.144531 312.523438 188.144531 L 309.390625 188.144531 Z M 315.550781 190.75 C 317.273438 191.664062 317.871094 194.230469 316.78125 196.273438 C 316.183594 197.46875 314.460938 198.347656 312.769531 198.347656 L 311.714844 198.347656 L 311.714844 190.253906 L 313.121094 190.253906 C 313.933594 190.253906 314.988281 190.46875 315.550781 190.75 Z M 315.550781 190.75 " fill-opacity="1" fill-rule="nonzero"/></svg>