<svg xmlns="http://www.w3.org/2000/svg" xmlns:xlink="http://www.w3.org/1999/xlink" width="500" zoomAndPan="magnify" viewBox="0 0 375 225" height="300" preserveAspectRatio="xMidYMid meet" version="1.0"><path fill="#000000" d="M 235.289062 19.714844 C 222.015625 27.519531 219.367188 29.175781 219.542969 29.566406 C 219.617188 29.742188 221.238281 30.589844 223.144531 31.472656 C 226.21875 32.847656 226.640625 33.167969 226.464844 33.800781 C 226.289062 34.542969 220.886719 46.582031 213.4375 62.679688 C 211.390625 67.128906 209.273438 71.257812 208.742188 71.824219 C 205.917969 74.824219 200.480469 74.894531 198.1875 71.964844 C 197.796875 71.46875 196.070312 68.011719 194.339844 64.269531 L 191.195312 57.488281 L 192.042969 56.925781 C 194.234375 55.476562 196.5625 53.324219 197.796875 51.59375 C 204.433594 42.097656 198.011719 29.355469 186.605469 29.355469 C 185.195312 29.355469 183.253906 29.601562 182.300781 29.882812 C 178.277344 31.082031 174.675781 34.789062 173.332031 39.167969 C 171.992188 43.476562 172.519531 46.546875 175.664062 53.21875 C 176.757812 55.511719 181.523438 65.75 186.289062 75.953125 C 198.046875 101.160156 197.796875 100.664062 199.457031 102.359375 C 200.269531 103.171875 201.824219 104.265625 202.917969 104.796875 C 204.648438 105.644531 205.351562 105.785156 207.929688 105.785156 C 210.472656 105.785156 211.214844 105.644531 212.695312 104.832031 C 216.015625 103.101562 217.671875 100.769531 220.570312 93.957031 C 221.34375 92.121094 223.746094 86.542969 225.933594 81.601562 C 228.125 76.660156 232.996094 65.46875 236.773438 56.714844 C 240.550781 47.992188 243.691406 40.792969 243.726562 40.722656 C 243.796875 40.652344 245.316406 41.355469 247.117188 42.238281 C 250.574219 43.96875 251.5625 44.074219 251.210938 42.59375 C 251.105469 42.132812 250.1875 35.566406 249.234375 28.046875 C 248.246094 20.527344 247.363281 14.136719 247.292969 13.890625 C 247.222656 13.679688 246.832031 13.46875 246.480469 13.46875 C 246.128906 13.46875 241.078125 16.257812 235.289062 19.714844 Z M 235.289062 19.714844 " fill-opacity="1" fill-rule="nonzero"/><path fill="#000000" d="M 145.054688 29.355469 C 141.417969 29.988281 137.996094 32.636719 136.40625 36.167969 C 135.558594 38.003906 135.417969 38.816406 135.382812 41.355469 C 135.382812 45.097656 135.699219 46.085938 140.21875 55.832031 C 146.363281 69.070312 150.28125 77.507812 153.777344 85.027344 C 161.859375 102.464844 162 102.710938 165.992188 104.796875 C 167.613281 105.644531 168.25 105.785156 171.039062 105.785156 C 173.722656 105.785156 174.464844 105.644531 175.945312 104.902344 C 178.027344 103.84375 180.746094 101.230469 181.558594 99.5 C 182.160156 98.300781 182.125 98.160156 181.453125 96.394531 C 180.570312 94.203125 171.710938 74.789062 164.332031 59.007812 C 161.507812 52.902344 158.859375 46.933594 158.4375 45.769531 C 156.777344 40.792969 157.339844 35.003906 159.917969 31.332031 C 161.222656 29.496094 161.222656 29.425781 160.519531 29.210938 C 159.390625 28.929688 146.960938 29.035156 145.054688 29.355469 Z M 145.054688 29.355469 " fill-opacity="1" fill-rule="nonzero"/><path fill="#000000" d="M 260.355469 126.082031 C 259.046875 126.613281 257.671875 128.414062 257.460938 129.859375 C 256.964844 133.636719 260.496094 136.320312 263.886719 134.695312 C 265.613281 133.886719 266.53125 132.332031 266.53125 130.285156 C 266.53125 127.070312 263.25 124.847656 260.355469 126.082031 Z M 260.355469 126.082031 " fill-opacity="1" fill-rule="nonzero"/><path fill="#000000" d="M 185.761719 127.988281 C 185.300781 128.238281 183.855469 130 182.511719 131.90625 C 180.605469 134.589844 180.148438 135.472656 180.429688 135.863281 C 180.957031 136.460938 186.042969 136.496094 186.820312 135.863281 C 187.878906 135.050781 190.984375 130.917969 190.984375 130.355469 C 190.984375 129.332031 189.925781 128.238281 188.585938 127.847656 C 186.960938 127.425781 186.75 127.425781 185.761719 127.988281 Z M 185.761719 127.988281 " fill-opacity="1" fill-rule="nonzero"/><path fill="#000000" d="M 208.460938 129.082031 C 207.613281 129.894531 207.578125 130.074219 207.578125 135.261719 L 207.578125 140.558594 L 205.246094 140.558594 C 203.164062 140.558594 202.847656 140.664062 201.894531 141.582031 C 200.726562 142.746094 200.550781 144.230469 201.398438 145.816406 C 202.035156 147.089844 202.527344 147.265625 205.28125 147.265625 L 207.542969 147.265625 L 207.648438 156.691406 C 207.753906 165.796875 207.789062 166.222656 208.601562 168.023438 C 210.789062 172.894531 216.648438 175.367188 222.828125 174.058594 C 226.394531 173.28125 228.050781 170.421875 226.144531 168.199219 L 225.300781 167.246094 L 222.476562 167.632812 C 218.273438 168.269531 216.191406 167.457031 214.957031 164.808594 C 214.390625 163.503906 214.285156 162.410156 214.285156 155.277344 L 214.285156 147.265625 L 218.699219 147.265625 C 222.933594 147.265625 223.179688 147.230469 223.992188 146.382812 C 225.265625 145.148438 225.226562 142.957031 223.886719 141.617188 C 222.898438 140.664062 222.828125 140.628906 219.863281 140.804688 C 218.203125 140.910156 216.261719 140.910156 215.554688 140.769531 L 214.285156 140.523438 L 214.285156 135.226562 C 214.285156 130.074219 214.25 129.894531 213.402344 129.082031 C 212.765625 128.414062 212.167969 128.203125 210.929688 128.203125 C 209.695312 128.203125 209.09375 128.414062 208.460938 129.082031 Z M 208.460938 129.082031 " fill-opacity="1" fill-rule="nonzero"/><path fill="#000000" d="M 24.390625 140.769531 C 18.917969 142.25 14.542969 146.347656 12.742188 151.75 C 12.035156 153.832031 12 154.679688 12 169.683594 L 12 185.460938 L 13.023438 186.484375 C 14.402344 187.863281 16.554688 187.933594 17.824219 186.628906 C 18.707031 185.78125 18.707031 185.710938 18.742188 178.613281 C 18.777344 174.660156 18.777344 171.234375 18.742188 170.988281 C 18.636719 170.316406 19.34375 170.492188 20.613281 171.445312 C 28.734375 177.625 41.441406 173.566406 45.078125 163.644531 C 49.28125 151.996094 41.019531 140.097656 28.769531 140.238281 C 27.425781 140.238281 25.449219 140.488281 24.390625 140.769531 Z M 33.394531 147.898438 C 34.207031 148.289062 35.582031 149.453125 36.5 150.476562 C 38.546875 152.773438 39.324219 155.207031 39.113281 158.597656 C 38.476562 167.175781 28.484375 171.09375 22.097656 165.234375 C 19.519531 162.867188 18.566406 160.503906 18.777344 156.902344 C 19.058594 152.488281 21.566406 148.816406 25.203125 147.476562 C 27.25 146.699219 31.523438 146.910156 33.394531 147.898438 Z M 33.394531 147.898438 " fill-opacity="1" fill-rule="nonzero"/><path fill="#000000" d="M 126.132812 140.523438 C 124.828125 140.875 122.109375 142.394531 121.4375 143.167969 C 120.839844 143.945312 120.378906 143.875 120.378906 143.0625 C 120.378906 142.039062 118.402344 140.558594 117.027344 140.558594 C 116.285156 140.558594 115.4375 140.875 114.765625 141.476562 L 113.671875 142.394531 L 113.671875 156.832031 C 113.671875 172.257812 113.742188 172.824219 115.402344 173.742188 C 116.285156 174.199219 118.121094 174.199219 119.003906 173.742188 C 120.589844 172.894531 120.730469 171.871094 120.730469 161.984375 C 120.730469 151.996094 120.875 150.972656 122.601562 149.101562 C 124.507812 147.054688 128.039062 146.3125 130.371094 147.476562 C 131.992188 148.289062 132.699219 148.996094 133.582031 150.617188 C 134.289062 151.960938 134.324219 152.667969 134.5 162.199219 L 134.675781 172.398438 L 135.664062 173.246094 C 137.113281 174.484375 139.160156 174.414062 140.539062 173.070312 L 141.5625 172.046875 L 141.5625 162.726562 C 141.5625 157.609375 141.738281 152.878906 141.914062 152.171875 C 142.796875 148.996094 145.480469 146.910156 148.65625 146.910156 C 150.738281 146.910156 152.046875 147.371094 153.316406 148.605469 C 155.46875 150.617188 155.503906 150.757812 155.683594 162.019531 L 155.859375 172.398438 L 156.847656 173.246094 C 157.90625 174.164062 159.777344 174.378906 161.011719 173.742188 C 162.601562 172.894531 162.742188 171.871094 162.742188 161.984375 C 162.742188 156.867188 162.566406 151.785156 162.390625 150.757812 C 161.613281 146.59375 158.894531 142.957031 155.363281 141.332031 C 153.632812 140.523438 152.894531 140.417969 149.679688 140.417969 C 145.269531 140.378906 143.398438 141.050781 140.820312 143.628906 L 139.160156 145.21875 L 137.855469 143.769531 C 135.914062 141.652344 133.371094 140.523438 130.015625 140.34375 C 128.5 140.273438 126.769531 140.34375 126.132812 140.523438 Z M 126.132812 140.523438 " fill-opacity="1" fill-rule="nonzero"/><path fill="#000000" d="M 179.792969 140.734375 C 176.6875 141.40625 174.320312 142.816406 172.0625 145.253906 C 168.074219 149.523438 166.625 154.820312 167.71875 160.890625 C 168.671875 166.222656 172.0625 170.566406 177.214844 173 C 179.511719 174.09375 180.253906 174.269531 183.183594 174.378906 C 187.101562 174.554688 189.609375 174.09375 192.679688 172.613281 C 196.984375 170.492188 198.433594 167.703125 196.316406 165.585938 C 195.007812 164.316406 193.667969 164.246094 191.902344 165.445312 C 188.761719 167.5625 187.773438 167.917969 184.628906 167.917969 C 181.453125 167.917969 179.933594 167.386719 177.710938 165.515625 C 176.722656 164.667969 175.453125 162.515625 174.921875 160.75 L 174.710938 159.972656 L 186.289062 159.972656 C 195.785156 159.972656 198.046875 159.867188 198.609375 159.480469 C 199.175781 159.054688 199.28125 158.527344 199.28125 155.84375 C 199.28125 153.761719 199.035156 152.066406 198.609375 150.6875 C 197.269531 146.59375 193.632812 142.746094 189.714844 141.261719 C 187.066406 140.273438 182.722656 140.027344 179.792969 140.734375 Z M 186.996094 147.089844 C 189.113281 147.972656 190.597656 149.3125 191.515625 151.148438 C 193.207031 154.5 193.632812 154.324219 183.746094 154.324219 C 173.863281 154.324219 174.355469 154.539062 176.015625 151.21875 C 177.5 148.21875 180.21875 146.59375 183.855469 146.558594 C 184.878906 146.558594 186.289062 146.804688 186.996094 147.089844 Z M 186.996094 147.089844 " fill-opacity="1" fill-rule="nonzero"/><path fill="#000000" d="M 244.996094 140.699219 C 243.054688 141.191406 241.007812 142.429688 240.089844 143.59375 L 239.421875 144.441406 L 239.207031 143.203125 C 238.890625 141.546875 237.550781 140.558594 235.644531 140.558594 C 234.371094 140.558594 233.949219 140.734375 233.207031 141.652344 L 232.289062 142.746094 L 232.289062 156.832031 C 232.289062 171.835938 232.394531 172.859375 233.984375 173.707031 C 234.902344 174.199219 236.703125 174.199219 237.621094 173.742188 C 239.171875 172.894531 239.347656 171.835938 239.347656 162.550781 C 239.347656 157.539062 239.527344 153.230469 239.738281 152.453125 C 239.914062 151.75 240.65625 150.546875 241.363281 149.878906 C 243.304688 147.898438 245.035156 147.265625 248.457031 147.265625 C 251.28125 147.265625 251.457031 147.230469 252.480469 146.207031 C 253.433594 145.253906 253.542969 144.933594 253.363281 143.699219 C 253.257812 142.921875 252.90625 141.96875 252.550781 141.582031 C 251.351562 140.238281 248.035156 139.851562 244.996094 140.699219 Z M 244.996094 140.699219 " fill-opacity="1" fill-rule="nonzero"/><path fill="#000000" d="M 283.160156 140.769531 C 278.996094 141.898438 274.828125 145.148438 272.816406 148.890625 C 270.875 152.488281 270.238281 157.855469 271.296875 161.914062 C 273.203125 169.152344 280.054688 174.414062 287.609375 174.449219 C 291.84375 174.449219 295.761719 173.140625 298.515625 170.777344 C 301.128906 168.550781 301.304688 166.363281 298.976562 164.953125 C 297.667969 164.140625 296.714844 164.351562 294.421875 165.871094 C 291.527344 167.8125 288.3125 168.410156 285.382812 167.5625 C 280.792969 166.222656 278.21875 163.046875 277.898438 158.351562 C 277.6875 154.855469 278.429688 152.417969 280.476562 150.160156 C 284.148438 146.066406 289.480469 145.640625 294.5625 149.03125 C 296.824219 150.546875 297.210938 150.652344 298.410156 150.054688 C 299.683594 149.417969 300.421875 148.21875 300.421875 146.839844 C 300.421875 145.78125 300.175781 145.289062 299.117188 144.265625 C 295.585938 140.839844 288.597656 139.285156 283.160156 140.769531 Z M 283.160156 140.769531 " fill-opacity="1" fill-rule="nonzero"/><path fill="#000000" d="M 316.769531 140.558594 C 312.777344 141.371094 308.121094 144.863281 306.140625 148.605469 C 303.351562 153.867188 303.175781 160.574219 305.753906 165.65625 C 307.308594 168.765625 309.953125 171.410156 312.992188 172.894531 C 315.25 174.023438 315.992188 174.199219 318.851562 174.34375 C 322.945312 174.554688 325.734375 173.742188 328.769531 171.410156 L 330.785156 169.859375 L 330.785156 170.882812 C 330.785156 171.484375 331.171875 172.363281 331.703125 173 C 332.9375 174.484375 335.160156 174.554688 336.46875 173.175781 C 337.316406 172.292969 337.316406 172.1875 337.421875 164.105469 C 337.5625 154.996094 337.316406 152.878906 335.65625 149.453125 C 334.382812 146.734375 331.277344 143.453125 328.769531 142.179688 C 325.3125 140.453125 320.652344 139.816406 316.769531 140.558594 Z M 324.605469 147.757812 C 332.371094 151.21875 332.621094 162.972656 324.992188 166.964844 C 323.511719 167.742188 322.734375 167.917969 320.546875 167.917969 C 318.25 167.917969 317.652344 167.777344 316.027344 166.894531 C 312.460938 164.917969 310.90625 162.054688 310.871094 157.503906 C 310.835938 155.101562 311.015625 154.148438 311.648438 152.738281 C 313.097656 149.628906 315.390625 147.6875 318.425781 147.054688 C 320.792969 146.558594 322.277344 146.734375 324.605469 147.757812 Z M 324.605469 147.757812 " fill-opacity="1" fill-rule="nonzero"/><path fill="#000000" d="M 349.28125 140.523438 C 346 141.332031 343.632812 143.242188 342.328125 146.171875 C 341.269531 148.570312 341.550781 152.382812 342.964844 154.394531 C 344.585938 156.691406 346.667969 158.066406 350.09375 159.125 C 355.285156 160.714844 356.203125 161.066406 357.261719 161.984375 C 358.144531 162.691406 358.320312 163.117188 358.320312 164.386719 C 358.320312 165.65625 358.144531 166.082031 357.261719 166.824219 C 354.753906 168.90625 350.484375 168.410156 347.023438 165.585938 C 345.824219 164.597656 344.269531 164.28125 342.964844 164.773438 C 342.292969 165.058594 341.375 166.714844 341.375 167.742188 C 341.375 168.660156 343.84375 171.339844 345.714844 172.472656 C 349.882812 174.90625 355.496094 175.117188 359.625 173 C 363.6875 170.953125 365.238281 168.058594 364.957031 163.292969 C 364.710938 159.339844 362.945312 156.972656 359.027344 155.242188 C 358.355469 154.960938 356.167969 154.21875 354.222656 153.621094 C 349.917969 152.347656 348.789062 151.570312 348.789062 149.914062 C 348.789062 148.253906 349.070312 147.652344 350.234375 147.089844 C 352.460938 145.921875 356.414062 146.699219 359.273438 148.890625 C 360.71875 149.984375 361.636719 149.949219 362.804688 148.816406 C 363.578125 148.042969 363.6875 147.6875 363.507812 146.347656 C 363.226562 143.804688 360.789062 141.722656 357.011719 140.734375 C 354.894531 140.167969 351.152344 140.097656 349.28125 140.523438 Z M 349.28125 140.523438 " fill-opacity="1" fill-rule="nonzero"/><path fill="#000000" d="M 50.199219 141.261719 C 48.503906 142.851562 48.398438 142.394531 53.796875 158.066406 C 58.492188 171.695312 58.847656 172.542969 59.941406 173.390625 C 61.140625 174.34375 63.824219 174.34375 65.058594 173.390625 C 66.011719 172.613281 66.117188 172.363281 70.109375 160.1875 C 71.554688 155.738281 72.792969 152.03125 72.863281 151.960938 C 72.933594 151.890625 74.554688 156.445312 76.425781 162.09375 C 79.359375 170.847656 80.027344 172.472656 80.910156 173.210938 C 82.605469 174.660156 85.464844 174.269531 86.664062 172.4375 C 86.984375 171.976562 88.429688 168.234375 89.914062 164.105469 C 91.359375 160.007812 93.585938 153.9375 94.820312 150.617188 C 96.054688 147.335938 97.078125 144.121094 97.078125 143.453125 C 97.078125 141.085938 94.253906 139.78125 91.644531 140.945312 C 90.265625 141.582031 89.914062 142.5 84.792969 159.339844 C 84.125 161.632812 83.453125 163.503906 83.3125 163.503906 C 83.207031 163.503906 82.886719 162.761719 82.675781 161.808594 C 82.429688 160.890625 80.945312 156.230469 79.394531 151.429688 C 76.179688 141.441406 75.6875 140.558594 73.25 140.558594 C 71.484375 140.558594 70.109375 141.476562 69.402344 143.132812 C 69.15625 143.769531 67.636719 148.464844 66.046875 153.621094 C 62.554688 164.878906 62.835938 164 62.695312 163.820312 C 62.625 163.75 61.175781 159.160156 59.480469 153.621094 C 56.164062 142.78125 55.847656 141.933594 54.644531 141.121094 C 53.515625 140.308594 51.152344 140.378906 50.199219 141.261719 Z M 50.199219 141.261719 " fill-opacity="1" fill-rule="nonzero"/><path fill="#000000" d="M 259.507812 141.476562 L 258.414062 142.394531 L 258.414062 172.222656 L 259.296875 173.175781 C 260.601562 174.589844 263.390625 174.378906 264.660156 172.71875 C 264.980469 172.292969 265.085938 168.445312 265.121094 157.433594 C 265.121094 149.347656 265.015625 142.464844 264.910156 142.144531 C 264.589844 141.371094 262.933594 140.558594 261.625 140.558594 C 261.023438 140.558594 260.144531 140.945312 259.507812 141.476562 Z M 259.507812 141.476562 " fill-opacity="1" fill-rule="nonzero"/><path fill="#000000" d="M 33.394531 191.640625 C 33.109375 192.207031 32.015625 194.851562 30.886719 197.570312 C 29.792969 200.289062 28.804688 202.726562 28.699219 202.972656 C 28.558594 203.324219 28.839844 203.429688 29.828125 203.324219 C 31.0625 203.21875 31.238281 203.078125 31.734375 201.703125 L 32.265625 200.21875 L 37.066406 200.21875 L 37.839844 201.808594 C 38.546875 203.21875 38.757812 203.394531 39.820312 203.394531 C 41.230469 203.394531 41.300781 203.75 38.441406 196.9375 C 37.277344 194.253906 36.359375 191.921875 36.359375 191.746094 C 36.359375 191.324219 35.160156 190.6875 34.453125 190.6875 C 34.132812 190.6875 33.675781 191.109375 33.394531 191.640625 Z M 35.617188 195.945312 C 36.003906 197.007812 36.324219 197.925781 36.253906 197.960938 C 35.933594 198.171875 33.179688 198.3125 33.179688 198.101562 C 33.179688 197.675781 34.664062 193.828125 34.804688 193.933594 C 34.839844 194.003906 35.230469 194.886719 35.617188 195.945312 Z M 35.617188 195.945312 " fill-opacity="1" fill-rule="nonzero"/><path fill="#000000" d="M 72.648438 191.394531 C 70.957031 192.3125 70.039062 193.511719 69.542969 195.59375 C 68.554688 199.6875 71.34375 203.394531 75.402344 203.394531 C 78.863281 203.394531 81.546875 200.640625 81.546875 197.078125 C 81.546875 194.675781 80.664062 192.980469 78.757812 191.746094 C 76.886719 190.476562 74.628906 190.371094 72.648438 191.394531 Z M 77.59375 193.722656 C 79.535156 194.992188 79.535156 198.628906 77.664062 200.324219 C 76.675781 201.207031 76.285156 201.3125 75.121094 201.171875 C 74.34375 201.066406 73.425781 200.714844 73.074219 200.394531 C 72.15625 199.546875 71.554688 197.570312 71.804688 196.195312 C 72.015625 195.101562 73.390625 193.441406 74.484375 193.050781 C 75.191406 192.769531 76.605469 193.085938 77.59375 193.722656 Z M 77.59375 193.722656 " fill-opacity="1" fill-rule="nonzero"/><path fill="#000000" d="M 106.753906 190.96875 C 106.433594 191.179688 101.667969 202.621094 101.667969 203.183594 C 101.667969 203.324219 102.164062 203.394531 102.761719 203.324219 C 103.929688 203.21875 104.246094 202.902344 104.847656 201.171875 C 105.164062 200.253906 105.269531 200.21875 107.636719 200.21875 L 110.070312 200.21875 L 110.707031 201.84375 C 111.269531 203.359375 111.378906 203.429688 112.578125 203.324219 C 113.285156 203.253906 113.8125 203.042969 113.777344 202.867188 C 113.601562 201.878906 108.90625 191.179688 108.589844 190.96875 C 108.375 190.828125 107.953125 190.6875 107.671875 190.6875 C 107.386719 190.6875 106.964844 190.828125 106.753906 190.96875 Z M 108.589844 196.125 L 109.363281 198.03125 L 108.589844 198.242188 C 107.316406 198.59375 106.257812 198.488281 106.257812 197.996094 C 106.257812 197.394531 107.421875 194.21875 107.636719 194.21875 C 107.777344 194.21875 108.199219 195.066406 108.589844 196.125 Z M 108.589844 196.125 " fill-opacity="1" fill-rule="nonzero"/><path fill="#000000" d="M 151.835938 191.324219 C 151.269531 192.382812 147.210938 202.691406 147.210938 203.042969 C 147.210938 203.253906 147.703125 203.394531 148.269531 203.394531 C 149.222656 203.394531 149.433594 203.183594 150.035156 201.808594 L 150.703125 200.21875 L 155.574219 200.21875 L 156.175781 201.808594 C 156.742188 203.253906 156.917969 203.394531 158.011719 203.394531 C 158.683594 203.394531 159.210938 203.253906 159.210938 203.113281 C 159.210938 202.9375 158.824219 201.878906 158.363281 200.714844 C 154.515625 191.253906 154.199219 190.6875 152.789062 190.6875 C 152.46875 190.6875 152.011719 190.96875 151.835938 191.324219 Z M 153.882812 195.664062 C 154.128906 196.476562 154.410156 197.324219 154.480469 197.570312 C 154.621094 197.890625 154.199219 198.066406 153.210938 198.171875 C 152.398438 198.242188 151.691406 198.207031 151.585938 198.066406 C 151.410156 197.746094 152.894531 194.21875 153.210938 194.21875 C 153.351562 194.21875 153.632812 194.851562 153.882812 195.664062 Z M 153.882812 195.664062 " fill-opacity="1" fill-rule="nonzero"/><path fill="#000000" d="M 195.222656 191.464844 C 192.46875 192.875 191.195312 195.734375 192.007812 198.808594 C 192.785156 201.703125 195.042969 203.394531 198.152344 203.394531 C 202.210938 203.394531 204.929688 199.726562 203.976562 195.558594 C 203.550781 193.546875 202.421875 192.132812 200.726562 191.359375 C 198.785156 190.476562 197.128906 190.511719 195.222656 191.464844 Z M 200.621094 194.253906 C 202.351562 196.125 201.894531 199.652344 199.738281 200.785156 C 195.820312 202.796875 192.253906 197.289062 195.433594 194.113281 C 196.984375 192.558594 199.035156 192.59375 200.621094 194.253906 Z M 200.621094 194.253906 " fill-opacity="1" fill-rule="nonzero"/><path fill="#000000" d="M 248.105469 191.074219 C 247.082031 191.464844 246.058594 193.265625 246.058594 194.675781 C 246.058594 196.089844 247.433594 197.289062 249.941406 198.171875 C 252.304688 199.019531 252.90625 199.726562 252.058594 200.75 C 251.492188 201.417969 249.691406 201.417969 248.386719 200.75 C 247.046875 200.042969 246.515625 200.078125 246.023438 200.996094 C 245.667969 201.632812 245.738281 201.84375 246.445312 202.371094 C 247.539062 203.21875 249.199219 203.539062 251.28125 203.289062 C 254.386719 202.9375 255.976562 199.726562 254.105469 197.605469 C 253.648438 197.113281 252.269531 196.335938 251 195.910156 C 249.199219 195.277344 248.667969 194.921875 248.597656 194.324219 C 248.527344 193.722656 248.738281 193.40625 249.410156 193.085938 C 250.1875 192.734375 250.609375 192.804688 252.058594 193.40625 C 253.578125 194.078125 253.789062 194.078125 253.929688 193.546875 C 254.035156 193.230469 254.210938 192.734375 254.316406 192.417969 C 254.847656 191.179688 250.398438 190.261719 248.105469 191.074219 Z M 248.105469 191.074219 " fill-opacity="1" fill-rule="nonzero"/><path fill="#000000" d="M 298.445312 191.074219 C 298.09375 191.640625 293.714844 202.726562 293.714844 203.042969 C 293.714844 203.253906 294.210938 203.394531 294.773438 203.394531 C 295.726562 203.394531 295.941406 203.183594 296.539062 201.808594 L 297.210938 200.21875 L 302.011719 200.21875 L 302.648438 201.808594 C 303.246094 203.253906 303.425781 203.394531 304.519531 203.394531 C 305.1875 203.394531 305.71875 203.253906 305.71875 203.078125 C 305.71875 202.902344 305.082031 201.171875 304.269531 199.265625 C 303.496094 197.359375 302.433594 194.746094 301.941406 193.441406 C 301.09375 191.253906 300.988281 191.109375 299.824219 190.96875 C 299.152344 190.898438 298.550781 190.933594 298.445312 191.074219 Z M 300.070312 194.746094 C 300.070312 195.066406 300.386719 195.910156 300.777344 196.6875 L 301.480469 198.066406 L 300.246094 198.3125 C 298.09375 198.699219 297.847656 198.382812 298.65625 196.335938 C 299.046875 195.347656 299.363281 194.464844 299.363281 194.394531 C 299.363281 194.289062 299.539062 194.21875 299.71875 194.21875 C 299.929688 194.21875 300.070312 194.464844 300.070312 194.746094 Z M 300.070312 194.746094 " fill-opacity="1" fill-rule="nonzero"/><path fill="#000000" d="M 327.078125 191.359375 C 326.300781 191.78125 325.277344 192.664062 324.78125 193.40625 C 324.039062 194.464844 323.898438 195.101562 323.898438 197.21875 C 323.898438 199.441406 324.003906 199.902344 324.921875 201.066406 C 326.089844 202.621094 327.710938 203.394531 329.722656 203.394531 C 335.9375 203.394531 338.304688 195.417969 333.183594 191.640625 C 331.773438 190.582031 328.84375 190.476562 327.078125 191.359375 Z M 332.265625 194.148438 C 334.136719 195.875 333.855469 199.300781 331.703125 200.605469 C 330.359375 201.417969 329.265625 201.453125 327.960938 200.679688 C 326.6875 199.9375 326.195312 198.84375 326.195312 196.863281 C 326.195312 193.335938 329.722656 191.746094 332.265625 194.148438 Z M 332.265625 194.148438 " fill-opacity="1" fill-rule="nonzero"/><path fill="#000000" d="M 341.902344 191.003906 C 340.738281 191.5 339.925781 192.664062 339.714844 194.183594 C 339.539062 195.417969 339.644531 195.734375 340.5625 196.617188 C 341.164062 197.21875 342.398438 197.890625 343.5625 198.242188 C 345.679688 198.84375 346.421875 199.761719 345.609375 200.75 C 345.046875 201.453125 343.703125 201.417969 341.621094 200.679688 C 340.140625 200.148438 339.890625 200.148438 339.609375 200.570312 C 339.398438 200.855469 339.257812 201.3125 339.257812 201.558594 C 339.257812 202.300781 342.082031 203.394531 344.09375 203.394531 C 345.644531 203.394531 346.140625 203.21875 347.09375 202.371094 C 348.082031 201.488281 348.257812 201.101562 348.257812 199.6875 C 348.257812 197.710938 347.621094 197.078125 344.515625 195.945312 C 342.222656 195.101562 341.515625 194.113281 342.644531 193.265625 C 343.492188 192.628906 344.164062 192.699219 345.714844 193.476562 C 346.988281 194.113281 347.058594 194.113281 347.375 193.511719 C 348.011719 192.347656 347.765625 191.710938 346.492188 191.179688 C 345.1875 190.652344 343.035156 190.546875 341.902344 191.003906 Z M 341.902344 191.003906 " fill-opacity="1" fill-rule="nonzero"/><path fill="#000000" d="M 43.703125 195.523438 C 43.738281 198.03125 43.984375 200.464844 44.195312 200.996094 C 45.078125 203.253906 49.03125 204.171875 51.46875 202.691406 C 53.234375 201.59375 53.65625 200.183594 53.65625 195.277344 L 53.65625 191.039062 L 51.1875 191.039062 L 51.1875 195.417969 C 51.1875 199.761719 51.1875 199.832031 50.269531 200.535156 C 49.101562 201.453125 47.972656 201.488281 46.914062 200.605469 C 46.101562 199.972656 46.066406 199.652344 45.960938 195.488281 L 45.820312 191.039062 L 43.597656 191.039062 Z M 43.703125 195.523438 " fill-opacity="1" fill-rule="nonzero"/><path fill="#000000" d="M 57.683594 191.816406 C 57.789062 192.277344 57.894531 192.734375 57.894531 192.875 C 57.894531 193.050781 58.351562 193.160156 58.917969 193.160156 C 61.070312 193.160156 61.070312 193.121094 61.070312 198.488281 L 61.070312 203.394531 L 63.542969 203.394531 L 63.542969 193.160156 L 65.308594 193.160156 C 67.035156 193.160156 67.070312 193.121094 67.070312 192.097656 L 67.070312 191.039062 L 57.46875 191.039062 Z M 57.683594 191.816406 " fill-opacity="1" fill-rule="nonzero"/><path fill="#000000" d="M 86.136719 197.21875 L 86.136719 203.394531 L 88.640625 203.394531 L 88.605469 199.761719 C 88.570312 197.78125 88.570312 195.984375 88.605469 195.804688 C 88.605469 195.59375 89.171875 196.40625 89.84375 197.605469 C 91.183594 199.972656 91.925781 200.75 92.453125 200.429688 C 92.632812 200.289062 93.335938 199.265625 93.972656 198.101562 C 94.609375 196.9375 95.242188 195.984375 95.386719 195.984375 C 95.5625 195.984375 95.667969 197.640625 95.667969 199.6875 L 95.667969 203.394531 L 97.785156 203.394531 L 97.785156 191.039062 L 96.585938 191.039062 C 95.421875 191.039062 95.277344 191.179688 93.691406 194.078125 L 92.066406 197.113281 L 91.253906 195.734375 C 90.832031 194.992188 90.054688 193.652344 89.523438 192.699219 C 88.675781 191.214844 88.429688 191.039062 87.371094 191.039062 L 86.136719 191.039062 Z M 86.136719 197.21875 " fill-opacity="1" fill-rule="nonzero"/><path fill="#000000" d="M 115.4375 192.0625 C 115.4375 193.050781 115.507812 193.121094 117.132812 193.230469 L 118.789062 193.335938 L 118.898438 198.347656 L 119.003906 203.394531 L 121.4375 203.394531 L 121.4375 198.453125 C 121.4375 192.980469 121.261719 193.371094 123.910156 193.085938 C 124.582031 193.015625 124.828125 192.734375 124.898438 191.992188 L 125.003906 191.039062 L 115.4375 191.039062 Z M 115.4375 192.0625 " fill-opacity="1" fill-rule="nonzero"/><path fill="#000000" d="M 128.25 197.113281 L 128.324219 203.21875 L 129.488281 203.324219 L 130.617188 203.429688 L 130.617188 191.039062 L 128.144531 191.039062 Z M 128.25 197.113281 " fill-opacity="1" fill-rule="nonzero"/><path fill="#000000" d="M 135.277344 192.167969 L 135.382812 193.335938 L 138.136719 193.195312 C 141.347656 193.050781 141.417969 193.195312 139.511719 195.769531 C 135.949219 200.535156 134.851562 202.195312 134.925781 202.691406 C 135.03125 203.113281 135.878906 203.21875 139.726562 203.324219 L 144.386719 203.429688 L 144.386719 200.855469 L 141.382812 201.066406 C 139.726562 201.171875 138.382812 201.171875 138.382812 201.101562 C 138.382812 200.996094 139.726562 199.195312 141.347656 197.078125 C 143.007812 194.957031 144.351562 192.910156 144.386719 192.558594 C 144.5625 191.039062 144.5625 191.039062 139.761719 191.039062 L 135.171875 191.039062 Z M 135.277344 192.167969 " fill-opacity="1" fill-rule="nonzero"/><path fill="#000000" d="M 162.8125 197.113281 L 162.917969 203.21875 L 164.046875 203.324219 L 165.179688 203.429688 L 165.285156 199.511719 L 165.390625 195.558594 L 168.144531 199.476562 C 170.578125 202.972656 171.003906 203.394531 171.921875 203.394531 L 172.980469 203.394531 L 172.980469 191.039062 L 170.6875 191.039062 L 170.792969 194.957031 C 170.898438 197.429688 170.792969 198.808594 170.578125 198.664062 C 170.402344 198.558594 169.273438 197.078125 168.074219 195.382812 C 165.039062 191.003906 165.074219 191.039062 163.835938 191.039062 L 162.742188 191.039062 Z M 162.8125 197.113281 " fill-opacity="1" fill-rule="nonzero"/><path fill="#000000" d="M 177.570312 197.253906 L 177.570312 203.464844 L 180.851562 203.324219 C 184.664062 203.148438 185.972656 202.585938 187.347656 200.535156 C 188.585938 198.664062 188.65625 195.628906 187.523438 193.792969 C 186.253906 191.746094 184.523438 191.039062 180.78125 191.039062 L 177.570312 191.039062 Z M 183.925781 193.617188 C 184.417969 193.863281 185.089844 194.640625 185.441406 195.382812 C 186.042969 196.546875 186.042969 196.863281 185.617188 198.171875 C 185.054688 199.972656 183.925781 200.820312 181.734375 201.136719 L 180.039062 201.347656 L 180.039062 193.160156 L 181.558594 193.160156 C 182.371094 193.160156 183.429688 193.371094 183.925781 193.617188 Z M 183.925781 193.617188 " fill-opacity="1" fill-rule="nonzero"/><path fill="#000000" d="M 219.578125 197.183594 L 219.578125 203.394531 L 221.699219 203.394531 L 221.699219 201.066406 C 221.699219 198.769531 221.699219 198.769531 222.652344 198.878906 C 223.394531 198.949219 223.992188 199.511719 225.050781 201.101562 C 226.324219 202.972656 226.640625 203.21875 227.804688 203.324219 C 228.511719 203.394531 229.113281 203.324219 229.113281 203.148438 C 229.113281 203.007812 228.511719 201.914062 227.769531 200.75 L 226.429688 198.628906 L 227.59375 197.535156 C 228.582031 196.582031 228.757812 196.195312 228.757812 194.816406 C 228.757812 193.617188 228.546875 192.945312 227.910156 192.207031 C 227.097656 191.253906 226.921875 191.214844 223.320312 191.109375 L 219.578125 190.96875 Z M 225.722656 193.722656 C 226.394531 194.359375 226.464844 195.664062 225.863281 196.265625 C 225.617188 196.511719 224.59375 196.6875 223.570312 196.6875 L 221.699219 196.6875 L 221.699219 193.160156 L 223.429688 193.160156 C 224.558594 193.160156 225.371094 193.371094 225.722656 193.722656 Z M 225.722656 193.722656 " fill-opacity="1" fill-rule="nonzero"/><path fill="#000000" d="M 233.453125 197.113281 L 233.523438 203.21875 L 241.996094 203.21875 L 242.101562 202.054688 L 242.210938 200.890625 L 239.101562 200.996094 L 235.996094 201.101562 L 235.890625 199.582031 L 235.785156 198.101562 L 238.609375 198.101562 C 241.398438 198.101562 241.46875 198.066406 241.46875 197.253906 C 241.46875 196.230469 240.339844 195.875 237.691406 196.019531 L 235.996094 196.125 L 235.890625 194.640625 L 235.785156 193.160156 L 242.171875 193.160156 L 242.171875 191.039062 L 233.382812 191.039062 Z M 233.453125 197.113281 " fill-opacity="1" fill-rule="nonzero"/><path fill="#000000" d="M 258.765625 195.628906 C 258.765625 200.785156 259.117188 201.949219 260.882812 202.867188 C 262.121094 203.503906 264.980469 203.539062 266.179688 202.9375 C 266.636719 202.691406 267.414062 201.949219 267.839844 201.3125 C 268.582031 200.21875 268.652344 199.726562 268.652344 195.59375 L 268.652344 191.039062 L 266.179688 191.039062 L 266.179688 195.453125 C 266.179688 199.40625 266.109375 199.9375 265.472656 200.570312 C 264.589844 201.453125 262.96875 201.488281 261.980469 200.640625 C 261.308594 200.113281 261.238281 199.617188 261.167969 195.628906 L 261.0625 191.214844 L 259.929688 191.109375 L 258.765625 191.003906 Z M 258.765625 195.628906 " fill-opacity="1" fill-rule="nonzero"/><path fill="#000000" d="M 273.238281 197.21875 L 273.238281 203.394531 L 281.359375 203.394531 L 281.359375 201.066406 L 278.535156 201.136719 L 275.710938 201.242188 L 275.710938 191.039062 L 273.238281 191.039062 Z M 273.238281 197.21875 " fill-opacity="1" fill-rule="nonzero"/><path fill="#000000" d="M 282.914062 191.816406 C 283.019531 192.277344 283.089844 192.804688 283.089844 192.980469 C 283.125 193.195312 283.796875 193.300781 284.714844 193.230469 L 286.300781 193.085938 L 286.300781 203.394531 L 288.738281 203.394531 L 288.84375 198.347656 L 288.949219 193.335938 L 290.644531 193.230469 C 292.234375 193.121094 292.304688 193.050781 292.304688 192.0625 L 292.304688 191.039062 L 287.539062 191.039062 C 282.808594 191.039062 282.773438 191.039062 282.914062 191.816406 Z M 282.914062 191.816406 " fill-opacity="1" fill-rule="nonzero"/><path fill="#000000" d="M 309.777344 197.113281 L 309.8125 203.21875 L 312.992188 203.183594 C 315.675781 203.183594 316.414062 203.042969 317.472656 202.371094 C 320.863281 200.289062 321.324219 195.277344 318.355469 192.59375 C 316.945312 191.289062 316.097656 191.039062 312.886719 191.039062 L 309.742188 191.039062 Z M 315.921875 193.652344 C 317.652344 194.570312 318.25 197.148438 317.15625 199.195312 C 316.554688 200.394531 314.828125 201.277344 313.132812 201.277344 L 312.074219 201.277344 L 312.074219 193.160156 L 313.484375 193.160156 C 314.296875 193.160156 315.355469 193.371094 315.921875 193.652344 Z M 315.921875 193.652344 " fill-opacity="1" fill-rule="nonzero"/></svg>